<mxfile host="app.diagrams.net" agent="Mozilla/5.0 (Windows NT 10.0; Win64; x64; rv:133.0) Gecko/20100101 Firefox/133.0" version="25.0.3">
  <diagram name="Seite-1" id="GXlEbYPovBx7N6-98dxc">
    <mxGraphModel dx="1235" dy="667" grid="1" gridSize="10" guides="1" tooltips="1" connect="1" arrows="1" fold="1" page="1" pageScale="1" pageWidth="827" pageHeight="1169" math="0" shadow="0">
      <root>
        <mxCell id="0" />
        <mxCell id="1" parent="0" />
        <mxCell id="nVwNFkqmiKs8fKlIy7Xh-1" value="&lt;span style=&quot;font-weight: normal;&quot;&gt;&amp;lt;&amp;lt;interface&amp;gt;&amp;gt;&lt;/span&gt;&lt;br&gt;Behälter" style="swimlane;fontStyle=1;align=center;verticalAlign=top;childLayout=stackLayout;horizontal=1;startSize=40;horizontalStack=0;resizeParent=1;resizeParentMax=0;resizeLast=0;collapsible=1;marginBottom=0;whiteSpace=wrap;html=1;" vertex="1" parent="1">
          <mxGeometry x="80" y="80" width="160" height="126" as="geometry" />
        </mxCell>
        <mxCell id="nVwNFkqmiKs8fKlIy7Xh-2" value="&amp;nbsp;" style="text;strokeColor=none;fillColor=none;align=left;verticalAlign=top;spacingLeft=4;spacingRight=4;overflow=hidden;rotatable=0;points=[[0,0.5],[1,0.5]];portConstraint=eastwest;whiteSpace=wrap;html=1;" vertex="1" parent="nVwNFkqmiKs8fKlIy7Xh-1">
          <mxGeometry y="40" width="160" height="26" as="geometry" />
        </mxCell>
        <mxCell id="nVwNFkqmiKs8fKlIy7Xh-3" value="" style="line;strokeWidth=1;fillColor=none;align=left;verticalAlign=middle;spacingTop=-1;spacingLeft=3;spacingRight=3;rotatable=0;labelPosition=right;points=[];portConstraint=eastwest;strokeColor=inherit;" vertex="1" parent="nVwNFkqmiKs8fKlIy7Xh-1">
          <mxGeometry y="66" width="160" height="8" as="geometry" />
        </mxCell>
        <mxCell id="nVwNFkqmiKs8fKlIy7Xh-4" value="+ iterator() : Iterator" style="text;strokeColor=none;fillColor=none;align=left;verticalAlign=top;spacingLeft=4;spacingRight=4;overflow=hidden;rotatable=0;points=[[0,0.5],[1,0.5]];portConstraint=eastwest;whiteSpace=wrap;html=1;" vertex="1" parent="nVwNFkqmiKs8fKlIy7Xh-1">
          <mxGeometry y="74" width="160" height="26" as="geometry" />
        </mxCell>
        <mxCell id="nVwNFkqmiKs8fKlIy7Xh-6" value="..." style="text;strokeColor=none;fillColor=none;align=left;verticalAlign=top;spacingLeft=4;spacingRight=4;overflow=hidden;rotatable=0;points=[[0,0.5],[1,0.5]];portConstraint=eastwest;whiteSpace=wrap;html=1;" vertex="1" parent="nVwNFkqmiKs8fKlIy7Xh-1">
          <mxGeometry y="100" width="160" height="26" as="geometry" />
        </mxCell>
        <mxCell id="nVwNFkqmiKs8fKlIy7Xh-7" value="KonkreterBehälter" style="swimlane;fontStyle=1;align=center;verticalAlign=top;childLayout=stackLayout;horizontal=1;startSize=26;horizontalStack=0;resizeParent=1;resizeParentMax=0;resizeLast=0;collapsible=1;marginBottom=0;whiteSpace=wrap;html=1;points=[[0,0,0,0,0],[0,0.25,0,0,0],[0,0.5,0,0,0],[0,0.75,0,0,0],[0,1,0,0,0],[0.25,0,0,0,0],[0.25,1,0,0,0],[0.5,0,0,0,0],[0.5,1,0,0,0],[0.75,0,0,0,0],[0.75,1,0,0,0],[1,0,0,0,0],[1,0.1,0,0,0],[1,0.2,0,0,0],[1,0.25,0,0,0],[1,0.3,0,0,0],[1,0.4,0,0,0],[1,0.5,0,0,0],[1,0.6,0,0,0],[1,0.7,0,0,0],[1,0.75,0,0,0],[1,0.8,0,0,0],[1,0.9,0,0,0],[1,1,0,0,0]];" vertex="1" parent="1">
          <mxGeometry x="80" y="280" width="160" height="112" as="geometry" />
        </mxCell>
        <mxCell id="nVwNFkqmiKs8fKlIy7Xh-8" value="&amp;nbsp;" style="text;strokeColor=none;fillColor=none;align=left;verticalAlign=top;spacingLeft=4;spacingRight=4;overflow=hidden;rotatable=0;points=[[0,0.5],[1,0.5]];portConstraint=eastwest;whiteSpace=wrap;html=1;" vertex="1" parent="nVwNFkqmiKs8fKlIy7Xh-7">
          <mxGeometry y="26" width="160" height="26" as="geometry" />
        </mxCell>
        <mxCell id="nVwNFkqmiKs8fKlIy7Xh-9" value="" style="line;strokeWidth=1;fillColor=none;align=left;verticalAlign=middle;spacingTop=-1;spacingLeft=3;spacingRight=3;rotatable=0;labelPosition=right;points=[];portConstraint=eastwest;strokeColor=inherit;" vertex="1" parent="nVwNFkqmiKs8fKlIy7Xh-7">
          <mxGeometry y="52" width="160" height="8" as="geometry" />
        </mxCell>
        <mxCell id="nVwNFkqmiKs8fKlIy7Xh-22" value="+ iterator() : Iterator" style="text;strokeColor=none;fillColor=none;align=left;verticalAlign=top;spacingLeft=4;spacingRight=4;overflow=hidden;rotatable=0;points=[[0,0.5],[1,0.5]];portConstraint=eastwest;whiteSpace=wrap;html=1;" vertex="1" parent="nVwNFkqmiKs8fKlIy7Xh-7">
          <mxGeometry y="60" width="160" height="26" as="geometry" />
        </mxCell>
        <mxCell id="nVwNFkqmiKs8fKlIy7Xh-12" value="..." style="text;strokeColor=none;fillColor=none;align=left;verticalAlign=top;spacingLeft=4;spacingRight=4;overflow=hidden;rotatable=0;points=[[0,0.5],[1,0.5]];portConstraint=eastwest;whiteSpace=wrap;html=1;" vertex="1" parent="nVwNFkqmiKs8fKlIy7Xh-7">
          <mxGeometry y="86" width="160" height="26" as="geometry" />
        </mxCell>
        <mxCell id="nVwNFkqmiKs8fKlIy7Xh-16" value="&lt;span style=&quot;font-weight: normal;&quot;&gt;&amp;lt;&amp;lt;interface&amp;gt;&amp;gt;&lt;br&gt;&lt;/span&gt;Iterator" style="swimlane;fontStyle=1;align=center;verticalAlign=top;childLayout=stackLayout;horizontal=1;startSize=40;horizontalStack=0;resizeParent=1;resizeParentMax=0;resizeLast=0;collapsible=1;marginBottom=0;whiteSpace=wrap;html=1;" vertex="1" parent="1">
          <mxGeometry x="360" y="80" width="160" height="126" as="geometry" />
        </mxCell>
        <mxCell id="nVwNFkqmiKs8fKlIy7Xh-17" value="&amp;nbsp;" style="text;strokeColor=none;fillColor=none;align=left;verticalAlign=top;spacingLeft=4;spacingRight=4;overflow=hidden;rotatable=0;points=[[0,0.5],[1,0.5]];portConstraint=eastwest;whiteSpace=wrap;html=1;" vertex="1" parent="nVwNFkqmiKs8fKlIy7Xh-16">
          <mxGeometry y="40" width="160" height="26" as="geometry" />
        </mxCell>
        <mxCell id="nVwNFkqmiKs8fKlIy7Xh-18" value="" style="line;strokeWidth=1;fillColor=none;align=left;verticalAlign=middle;spacingTop=-1;spacingLeft=3;spacingRight=3;rotatable=0;labelPosition=right;points=[];portConstraint=eastwest;strokeColor=inherit;" vertex="1" parent="nVwNFkqmiKs8fKlIy7Xh-16">
          <mxGeometry y="66" width="160" height="8" as="geometry" />
        </mxCell>
        <mxCell id="nVwNFkqmiKs8fKlIy7Xh-19" value="+ hasNext() : Boolean" style="text;strokeColor=none;fillColor=none;align=left;verticalAlign=top;spacingLeft=4;spacingRight=4;overflow=hidden;rotatable=0;points=[[0,0.5],[1,0.5]];portConstraint=eastwest;whiteSpace=wrap;html=1;" vertex="1" parent="nVwNFkqmiKs8fKlIy7Xh-16">
          <mxGeometry y="74" width="160" height="26" as="geometry" />
        </mxCell>
        <mxCell id="nVwNFkqmiKs8fKlIy7Xh-21" value="+ next() : Object" style="text;strokeColor=none;fillColor=none;align=left;verticalAlign=top;spacingLeft=4;spacingRight=4;overflow=hidden;rotatable=0;points=[[0,0.5],[1,0.5]];portConstraint=eastwest;whiteSpace=wrap;html=1;" vertex="1" parent="nVwNFkqmiKs8fKlIy7Xh-16">
          <mxGeometry y="100" width="160" height="26" as="geometry" />
        </mxCell>
        <mxCell id="nVwNFkqmiKs8fKlIy7Xh-23" value="KonkreterIterator" style="rounded=0;whiteSpace=wrap;html=1;fontStyle=1" vertex="1" parent="1">
          <mxGeometry x="360" y="280" width="160" height="30" as="geometry" />
        </mxCell>
        <mxCell id="nVwNFkqmiKs8fKlIy7Xh-24" value="{&lt;br&gt;&amp;nbsp;&amp;nbsp;&amp;nbsp; return new KonkreterIterator(this);&lt;br&gt;}" style="shape=note2;boundedLbl=1;whiteSpace=wrap;html=1;size=25;verticalAlign=middle;align=left;spacingLeft=5;" vertex="1" parent="1">
          <mxGeometry x="280" y="350" width="230" height="60" as="geometry" />
        </mxCell>
        <mxCell id="nVwNFkqmiKs8fKlIy7Xh-25" value="" style="endArrow=block;html=1;rounded=0;endFill=0;endSize=9;dashed=1;dashPattern=8 8;" edge="1" parent="1" source="nVwNFkqmiKs8fKlIy7Xh-7" target="nVwNFkqmiKs8fKlIy7Xh-1">
          <mxGeometry width="50" height="50" relative="1" as="geometry">
            <mxPoint x="196" y="270" as="sourcePoint" />
            <mxPoint x="221" y="222" as="targetPoint" />
          </mxGeometry>
        </mxCell>
        <mxCell id="nVwNFkqmiKs8fKlIy7Xh-26" value="" style="endArrow=block;html=1;rounded=0;endFill=0;endSize=9;dashed=1;dashPattern=8 8;" edge="1" parent="1" source="nVwNFkqmiKs8fKlIy7Xh-23" target="nVwNFkqmiKs8fKlIy7Xh-16">
          <mxGeometry width="50" height="50" relative="1" as="geometry">
            <mxPoint x="170" y="290" as="sourcePoint" />
            <mxPoint x="170" y="216" as="targetPoint" />
          </mxGeometry>
        </mxCell>
        <mxCell id="nVwNFkqmiKs8fKlIy7Xh-27" value="" style="endArrow=open;html=1;rounded=0;endFill=0;" edge="1" parent="1">
          <mxGeometry width="50" height="50" relative="1" as="geometry">
            <mxPoint x="360" y="295" as="sourcePoint" />
            <mxPoint x="240" y="295" as="targetPoint" />
          </mxGeometry>
        </mxCell>
        <mxCell id="nVwNFkqmiKs8fKlIy7Xh-28" value="" style="endArrow=none;html=1;rounded=0;entryX=0;entryY=0.5;entryDx=0;entryDy=0;entryPerimeter=0;dashed=1;dashPattern=8 8;" edge="1" parent="1" target="nVwNFkqmiKs8fKlIy7Xh-24">
          <mxGeometry width="50" height="50" relative="1" as="geometry">
            <mxPoint x="195" y="355" as="sourcePoint" />
            <mxPoint x="215" y="455" as="targetPoint" />
          </mxGeometry>
        </mxCell>
        <mxCell id="nVwNFkqmiKs8fKlIy7Xh-29" value="Dienstnutzer" style="text;html=1;align=center;verticalAlign=middle;whiteSpace=wrap;rounded=0;fontColor=#006666;fontStyle=0" vertex="1" parent="1">
          <mxGeometry x="240" y="30" width="120" height="30" as="geometry" />
        </mxCell>
        <mxCell id="nVwNFkqmiKs8fKlIy7Xh-30" value="" style="endArrow=open;html=1;rounded=0;endFill=0;strokeColor=#006666;" edge="1" parent="1" source="nVwNFkqmiKs8fKlIy7Xh-29" target="nVwNFkqmiKs8fKlIy7Xh-1">
          <mxGeometry width="50" height="50" relative="1" as="geometry">
            <mxPoint x="610" y="119" as="sourcePoint" />
            <mxPoint x="330" y="121" as="targetPoint" />
          </mxGeometry>
        </mxCell>
        <mxCell id="nVwNFkqmiKs8fKlIy7Xh-31" value="" style="endArrow=open;html=1;rounded=0;endFill=0;strokeColor=#006666;" edge="1" parent="1" source="nVwNFkqmiKs8fKlIy7Xh-29" target="nVwNFkqmiKs8fKlIy7Xh-16">
          <mxGeometry width="50" height="50" relative="1" as="geometry">
            <mxPoint x="292" y="50" as="sourcePoint" />
            <mxPoint x="245" y="90" as="targetPoint" />
          </mxGeometry>
        </mxCell>
      </root>
    </mxGraphModel>
  </diagram>
</mxfile>
